# xmcd
# 
# Track frame offsets:
#     150
#     14317
#     26993
#     44214
#     58679
#     74449
#     94409
#     108149
#     132934
#     163614
#     181449
#     182331
#     200576
#     220733
#     247390
#     261187
#     286483
#     302565
#     314446
#     325477
# 
# Disc length: 4440
# 
# Revision: 3
# Processed by: cddbd v1.5.2PL0 Copyright (c) Steve Scherf et al.
# Submitted via: fre:ac v1.0.31
# 
DISCID=39115614
DTITLE=筋肉少女帯 - 筋肉少女帯 ナゴムコレクション
DYEAR=2006
DGENRE=ハードロック
TTITLE0=釈迦～とろろの脳髄
TTITLE1=マタンゴ
TTITLE2=いくぢなし
TTITLE3=ララミー
TTITLE4=高木ブー伝説
TTITLE5=から笑う孤島の鬼
TTITLE6=最期の遠足
TTITLE7=外道節
TTITLE8=猿の左手 象牙の塔
TTITLE9=オレンヂペニス
TTITLE10=肉の王者
TTITLE11=釈迦
TTITLE12=ノーマンベイツ (Demo '87)
TTITLE13=いくじなし (Live '87)
TTITLE14=また会えたらいいね (Live '87)
TTITLE15=さよならまねき猫 (Live '87)
TTITLE16=パヤパヤ (Live '85)
TTITLE17=オレンヂペニス (Live '83)
TTITLE18=うろこの顔 (Live '82)
TTITLE19=肉の王者 (Demo '82)
EXTD=YEAR: 2006
EXTT0=
EXTT1=
EXTT2=
EXTT3=
EXTT4=
EXTT5=
EXTT6=
EXTT7=
EXTT8=
EXTT9=
EXTT10=
EXTT11=
EXTT12=
EXTT13=
EXTT14=
EXTT15=
EXTT16=
EXTT17=
EXTT18=
EXTT19=
PLAYORDER=
